<?xml version="1.0" encoding="UTF-8" standalone="no"?>
<!-- Created with Inkscape (http://www.inkscape.org/) -->

<svg
   width="210mm"
   height="297mm"
   viewBox="0 0 210 297"
   version="1.1"
   id="svg1"
   xml:space="preserve"
   xmlns="http://www.w3.org/2000/svg"
   xmlns:svg="http://www.w3.org/2000/svg"><defs
     id="defs1"><rect
       x="214.27748"
       y="-59.448936"
       width="570.97113"
       height="156.78841"
       id="rect2" /><rect
       x="214.27748"
       y="-59.448936"
       width="570.97113"
       height="156.78841"
       id="rect10" /></defs><g
     id="layer3"><path
       id="path12"
       style="display:inline;fill:#d7dae9;fill-opacity:1;stroke:none;stroke-width:0.600001;stroke-linecap:square;paint-order:stroke fill markers"
       d="m 832.92359,44.325347 -71.75801,-5.870882 -164.43885,8.727531 -7.1482,283.331434 h 257.64444 z" /></g><g
     id="layer1"><path
       id="path11"
       style="display:inline;fill:#d7dae9;fill-opacity:1;stroke:none;stroke-width:0.600001;stroke-linecap:square;paint-order:stroke fill markers"
       d="M 522.53918,44.325344 370.60339,37.721129 286.09788,46.44866 279.19412,330.51343 H 536.83856 Z" /></g><g
     id="layer2"
     transform="translate(3.6700654)"
     style="display:inline"><path
       id="path10"
       style="display:inline;fill:#d7dae9;fill-opacity:1;stroke:none;stroke-width:0.600001;stroke-linecap:square;paint-order:stroke fill markers"
       d="M 229.75321,35.525345 54.595198,49.698908 -14.754762,32.759772 -15.791852,330.51343 H 241.85259 Z"
       transform="translate(-3.6700654)" /><text
       xml:space="preserve"
       transform="matrix(0.14793427,0,0,0.14793427,20.260246,23.055767)"
       id="text1"
       style="font-size:53.3333px;line-height:0.9;font-family:Monospace;-inkscape-font-specification:Monospace;text-align:justify;letter-spacing:0px;writing-mode:lr-tb;direction:ltr;white-space:pre;shape-inside:url(#rect2);display:none;fill:#1a1a1a;fill-opacity:1;stroke:none;stroke-width:2.26772;stroke-linecap:square;paint-order:stroke fill markers"><tspan
         x="214.27734"
         y="-21.090268"
         id="tspan3"><tspan
           style="font-family:'Cal Sans';-inkscape-font-specification:'Cal Sans'"
           id="tspan1">TU Delft for Integrity</tspan></tspan></text><g
       transform="matrix(0.10587256,0,0,0.10587256,7.1359503,10.913004)"
       id="g5"
       style="stroke:none;stroke-width:0.472266;stroke-dasharray:none"><path
         id="path1"
         d="m 193.5621,12.615384 -16.32207,4.373379 5.4716,20.441642 c -6.85159,4.844224 -11.36785,12.819282 -11.36785,21.769275 0,0.106452 0.008,0.211091 0.01,0.317265 L 62.809784,88.637011 63.415029,90.896916 25.37737,187.19911 H 12.301162 a 57.000359,57.000359 0 0 0 114.000718,0 H 113.22079 L 79.439363,101.67417 176.98133,75.502231 c 3.19677,4.101787 7.55875,7.253871 12.56859,8.95176 V 280.55318 h -87.9508 c -6.230101,0 -14.21759,-2.86784 -23.531319,-6.32578 -9.313728,-3.45795 -20.013104,-7.38007 -32.268313,-7.38007 -15.288159,0 -26.798232,6.96334 -33.332372,15.9023 -6.5341405,8.93896 -8.7174724,19.19673 -8.7174724,27.55327 0,9.30647 3.9820133,18.24715 10.3574894,25.32753 6.375476,7.08038 15.624918,12.42215 26.391585,12.42215 10.358958,0 19.091655,-4.58495 24.717401,-10.91392 5.625746,-6.32896 8.531994,-14.18678 8.531994,-21.94011 0,-15.1994 -12.496658,-26.45016 -26.147535,-26.45016 -7.892807,0 -13.821783,4.66082 -16.912677,8.942 -1.545447,2.14058 -2.56733,4.22183 -3.240986,6.2428 -0.336828,1.01048 -0.595769,1.9828 -0.73215,3.23122 -0.136382,1.24842 -1.259866,2.70574 1.649779,6.7065 a 8.4499998,8.4499998 0 0 0 11.807147,1.86455 8.4499998,8.4499998 0 0 0 3.465512,-6.74555 c 0.145634,-0.35449 0.364194,-0.86903 0.751675,-1.40573 0.934106,-1.29382 1.604507,-1.93288 3.2117,-1.93288 5.349123,0 9.249501,2.74664 9.249501,9.54725 0,3.24667 -1.491742,7.59276 -4.265997,10.7138 -2.774254,3.12103 -6.444322,5.23731 -12.085364,5.23731 -5.133333,0 -10.03324,-2.6089 -13.832764,-6.82852 -3.799525,-4.21962 -6.013396,-9.92471 -6.013396,-14.01824 0,-5.14346 1.666102,-12.39045 5.456962,-17.57649 3.79086,-5.18604 9.078128,-8.97617 19.689968,-8.97617 8.544792,0 17.245551,2.92884 26.381823,6.3209 9.136271,3.39205 18.647904,7.38008 29.417809,7.38008 h 192.79963 c 10.7699,0 20.30068,-3.98705 29.45198,-7.38008 9.1513,-3.39304 17.86182,-6.3209 26.34765,-6.3209 10.61184,0 15.89911,3.79013 19.68997,8.97617 3.79087,5.18604 5.46184,12.43303 5.46184,17.57649 0,4.09353 -2.21874,9.79862 -6.01827,14.01824 -3.79952,4.21962 -8.69944,6.82852 -13.83277,6.82852 -5.57621,0 -9.26402,-2.11533 -12.05608,-5.24707 -2.79205,-3.13174 -4.2904,-7.48298 -4.2904,-10.70404 0,-6.80061 3.90038,-9.54725 9.2495,-9.54725 1.60719,0 2.27271,0.63906 3.20682,1.93288 0.46705,0.64692 0.82078,1.4178 0.91275,1.69371 0.046,0.13795 0.0159,0.17996 -0.0342,-0.27822 -0.0501,-0.45818 -1.2307,-1.3456 1.47895,-5.07136 a 8.4499998,8.4499998 0 0 0 1.86454,11.80715 8.4499998,8.4499998 0 0 0 11.80227,-1.86455 c 2.90964,-4.00076 1.79104,-5.45808 1.65466,-6.7065 -0.13638,-1.24842 -0.4002,-2.22074 -0.73703,-3.23122 -0.67365,-2.02097 -1.69066,-4.10222 -3.23611,-6.2428 -3.09089,-4.28118 -9.01987,-8.942 -16.91268,-8.942 -13.65088,0 -26.15241,11.25076 -26.15241,26.45016 0,7.77894 2.94785,15.63161 8.5808,21.94987 5.63294,6.31826 14.3448,10.90416 24.66859,10.90416 10.76667,0 20.01611,-5.34177 26.39159,-12.42215 6.37547,-7.08038 10.35749,-16.02106 10.35749,-25.32753 0,-8.35654 -2.17845,-18.61431 -8.71259,-27.55327 -6.53414,-8.93896 -18.0491,-15.9023 -33.33726,-15.9023 -12.21417,0 -22.90068,3.92311 -32.22438,7.38007 -9.3237,3.45696 -17.34515,6.32578 -23.57525,6.32578 h -87.9508 V 84.458872 c 9.4417,-3.198427 16.57866,-11.580372 17.95721,-21.691179 L 313.83,38.811729 280.57572,122.99928 h -13.07621 a 57.00036,57.00036 0 0 0 114.00072,0 H 368.41917 L 331.67009,29.96247 328.31684,17.437815 221.1837,46.133234 C 216.72539,38.299118 208.41487,32.894835 198.9068,32.568926 Z m 130.9378,31.580092 31.12128,78.803804 h -62.24744 z m -126.50096,5.261721 c 5.48244,0 9.74736,4.260042 9.74736,9.742483 0,5.482441 -4.26492,9.747364 -9.74736,9.747364 -5.48244,0 -9.74737,-4.264923 -9.74737,-9.747364 0,-5.482441 4.26493,-9.742483 9.74737,-9.742483 z M 69.301519,108.39531 100.4228,187.19911 H 38.17536 Z m -27.270166,195.533 c 2.297707,3.15935 1.807064,4.1252 1.571683,4.67112 a 8.4499998,8.4499998 0 0 0 -1.571683,-4.67112 z"
         style="stroke:none;stroke-width:0.472266;stroke-dasharray:none;stroke-opacity:1" /></g><text
       xml:space="preserve"
       transform="matrix(0.14793427,0,0,0.14793427,24.782468,31.00679)"
       id="text10"
       style="font-size:53.3333px;line-height:0.9;font-family:Monospace;-inkscape-font-specification:Monospace;text-align:justify;letter-spacing:0px;writing-mode:lr-tb;direction:ltr;white-space:pre;shape-inside:url(#rect10);display:none;fill:#1a1a1a;fill-opacity:1;stroke:none;stroke-width:2.26772;stroke-linecap:square;paint-order:stroke fill markers"><tspan
         x="214.27734"
         y="-21.090268"
         id="tspan5"><tspan
           style="font-family:'Cal Sans';-inkscape-font-specification:'Cal Sans';fill:#999999"
           id="tspan4">Open Letter</tspan></tspan></text></g></svg>
